# xmcd
#
# Track frame offsets: 
#        150
#        9931
#        18835
#        27913
#        37344
#        47677
#        59264
#        72921
#        83292
#        92802
#        103455
#        112157
#        123188
#        133215
#        142777
#        154569
#        163528
#        172388
#        183397
#        192670
#        205698
#        216354
#        226035
#        237273
#        248248
#        259464
#
# Disc length: 3631 seconds
#
# Revision: 0
# Processed by: cddbd v1.5.2PL0 Copyright (c) Steve Scherf et al.
# Submitted via: ExactAudioCopy v1.0b1
#
DISCID=700e2d1a
DTITLE=Va  - Birth Of Surf Vol. 2 (2010)  FLAC
DYEAR=1900
DGENRE=
TTITLE0=The Ventures - Walk. Don't Run
TTITLE1=The Scarlets - Stampede
TTITLE2=The Wailers - Shanghied
TTITLE3=The Revels - Church Key
TTITLE4=The Rockin' Rebels - Wild Weekend
TTITLE5=The Busters - Bust Out
TTITLE6=Dick Dale and The Del-Tones - Surf Beat
TTITLE7=The Surfaris - Point Panic
TTITLE8=The Chantays - Monsoon
TTITLE9=The Centurions - Bullwinkle Pt II
TTITLE10=The Lively Ones - High Tide
TTITLE11=The Astronauts - Hot Doggin'
TTITLE12=The Pagents - Enchanted
TTITLE13=The Original Surfaris - Surfari
TTITLE14=The Trashmen - Malaguena
TTITLE15=The Pyramids - Midnight Run
TTITLE16=The Bel-Aires - Baggies
TTITLE17=The Catalinas - Banzai Washout
TTITLE18=Jim Messina and The Jesters - The Thing
TTITLE19=Bobby Fuller and The Fanatics - Our Favorite Martian
TTITLE20=The Creations - Crash
TTITLE21=The Kan Dells - Cloudburst
TTITLE22=The Intrepides - Golash
TTITLE23=The Velvetones - Mister X
TTITLE24=The Vy-Dels - Unknown
TTITLE25=The Sandals - Theme From Endless Summer
EXTD=
EXTT0=
EXTT1=
EXTT2=
EXTT3=
EXTT4=
EXTT5=
EXTT6=
EXTT7=
EXTT8=
EXTT9=
EXTT10=
EXTT11=
EXTT12=
EXTT13=
EXTT14=
EXTT15=
EXTT16=
EXTT17=
EXTT18=
EXTT19=
EXTT20=
EXTT21=
EXTT22=
EXTT23=
EXTT24=
EXTT25=
PLAYORDER=
